<?xml version="1.0" encoding="UTF-8" standalone="no"?>
<!DOCTYPE svg PUBLIC "-//W3C//DTD SVG 1.1//EN" "http://www.w3.org/Graphics/SVG/1.1/DTD/svg11.dtd">
<svg width="100%" height="100%" viewBox="0 0 16 16" version="1.1" xmlns="http://www.w3.org/2000/svg" xmlns:xlink="http://www.w3.org/1999/xlink" xml:space="preserve" xmlns:serif="http://www.serif.com/" style="fill-rule:evenodd;clip-rule:evenodd;stroke-linecap:round;stroke-linejoin:round;stroke-miterlimit:1.5;">
    <path d="M15.5,4.63L15.5,11.37C15.5,13.649 13.649,15.5 11.37,15.5L4.63,15.5C2.351,15.5 0.5,13.649 0.5,11.37L0.5,4.63C0.5,2.351 2.351,0.5 4.63,0.5L11.37,0.5C13.649,0.5 15.5,2.351 15.5,4.63Z" style="fill:#ebebeb;stroke:#292929;stroke-width:0.45px;"/>
    <path d="M10.131,3.5L11.994,3.5C12.294,3.5 12.444,3.65 12.444,3.95L12.444,8.8C12.444,9.067 12.435,9.315 12.419,9.544C12.402,9.773 12.335,10.042 12.219,10.35L11.594,12.05C11.552,12.175 11.492,12.281 11.412,12.369C11.333,12.456 11.227,12.5 11.094,12.5L9.431,12.5C9.298,12.5 9.179,12.471 9.075,12.412C8.971,12.354 8.898,12.258 8.856,12.125L8.281,10.087C8.24,9.946 8.165,9.875 8.056,9.875L7.944,9.875C7.835,9.875 7.76,9.946 7.719,10.087L7.131,12.125C7.056,12.375 6.881,12.5 6.606,12.5L4.956,12.5C4.823,12.5 4.708,12.458 4.612,12.375C4.517,12.292 4.448,12.183 4.406,12.05L3.781,10.325C3.673,10.017 3.608,9.748 3.587,9.519C3.567,9.29 3.556,9.042 3.556,8.775L3.556,3.95C3.556,3.65 3.706,3.5 4.006,3.5L5.931,3.5C6.231,3.5 6.381,3.65 6.381,3.95L6.381,8.55L7.106,6.975C7.173,6.833 7.26,6.733 7.369,6.675C7.477,6.617 7.61,6.587 7.769,6.587L8.294,6.587C8.46,6.587 8.596,6.617 8.7,6.675C8.804,6.733 8.89,6.833 8.956,6.975L9.681,8.55L9.681,3.95C9.681,3.65 9.831,3.5 10.131,3.5Z" style="fill:#292929;fill-rule:nonzero;"/>
</svg>
